<svg width="358" height="222" version="1" xmlns="http://www.w3.org/2000/svg"><g fill-rule="nonzero" fill="none"><g fill="#04164d"><path d="M79 7c-1 0-1 0 0 0zM102 63zM94 70zM110 37zM59 12zM59 11v1h1l-1-1zM32 34zM95 37h-1 1zM36 30l-1-1 1 1zM102 63zM87 76zM46 99zM76 83v1l1-1v-1l-1 1z"/><path d="M57 81h2l-8 6s1 2-6 3h1l-1 2-2 1h-1s1 2-1 2v1l-2 3h6c-2 0 0 0 0 0h1l1-1 1 1c0-2 4-1 5-2l2-1h2v-1h2v1c1 0 3-1 2-2h1c1-1 5-1 5-3v1l-1-3h1l3-2-3-1 3-1h1c3 0 1-2 2-2h1v1h2l1-2 3-2-1-1h2l-4 4h1l1-2 2 1v-1l5-3-1-1h2l4-3v-1s2 0 1-1v-1l1-1h0c2 0 0 0 1-1v-2l2 1c1-1 0-2 2-3 1-1 2-1 2 1v-2h1v-1l-1-2h-1l2-2v-1h1l1-1h-1l2-2c2-1 1-3 2-5v-1l1 1c-1-2 1-1 1-2h-1l1-1h2l-1-1h1v-1h1l-1-2v1l-1-1v-2 1l1-2h-1l1-1-1-2h1-1 2l-1-1v-1-3l1-1-1-1h-1c1-1-1-3 1-3l-1-1-1-2-1-1v-2l-1-3-1-2-1-1-3-2a27 27 0 0 0-7-3l-2-2h-2l-4-1-1 1-2-1-4-1v2l-2-1-2-1v1h-1l-3 1h-2l-5 2h-2c-1-1-1 1-2 2h-2c1-2 0 2 0 0l-3 1-3 2-2 1-1 1-4 2h1l-3 2-1 2-2 1c0 1 0 2-2 3l-1 2-1 1-2 2-2 2 1 6 5 2h5l5-7 3-1 2-1a63 63 0 0 1 13-8v-1h3l2-1h1l2-1h1l1 1v-1h1l10 1c3 0 5 2 6 5v3c2 1 2 3 2 5v3l-1 1-1 1a45 45 0 0 1-9 16l-3 3a70 70 0 0 1-5 4l-3 3-6 5-5 4-5 5zM45 92c-1-1-1-1 0 0zM70 87h1zM58 96h1-1zM41 95v0h-1zM45 99v0z"/><g><path d="M121 79s-1 0 0 0zM87 163v1-1zM76 173zM108 137zM91 71zM91 71c1 0 0 0 0 0h0zM45 92v-1zM96 128zM51 87v-1 1zM87 164zM66 182v-1 1zM10 220h1v-1l-1 1zM51 192l2-1h-1l-1 1z"/><path d="M27 195l2-1c-4 5-7 6-11 10 0 0 1 2-8 5v1l1-1-1 3H9l-2 2H6c-1 0 1 1-2 2 2 1 0 2 0 2l-3 4 7-2h2v-1l2-1v1c0-2 6-3 7-3l3-3h3c1-1-1-1-1-1l2-1 1 1 3-3 3-1h-1c1 0 0 0 0 0l6-4c-1-1-2-1-1-2l1-1 5-3-4-1c2 0 5-1 4-2h2c3-1 1-2 2-2l2-1-1 1 3-1 1-2 4-3v-1l1-1 1 1-5 5 3-2h1v-1l8-5h-1l2-2 6-4v-1s2 0 1-1l1-1 1-2h1l1-1v-2h2l3-4 3 1v-2l1 1 1-2-1-2h-1l3-3 1-1v1l1-2 2-2v1c3-1 3-4 5-6v1l1-2v1c0-2 1-1 2-1l-1-1 1-1 2 1v-1h1l1-1h1v-3 2l-1-1 1-3v1l2-1-1-1h1l1-2 1-1v1-1l1-1v1l3-4 1 1v-3c1 0 2-2 3-1l1-2 1-1 2-4c2 0 4-4 5-6a51 51 0 0 0 3-14c2-1 1-4 1-6l-2-7h-1l-2-5-3-4-1-1v1l-2-2c1-1 0-1-1-1l-2-2v1l-1-1-9-3c-2-1-5-2-8-1h-1c-2-2-3 0-5 0h-2c1-1-2 2 0 0h-5l-5 1-11 3 1 1-5 1c-2 0-2 2-3 3h-2c-1 1-2 3-4 3l-3 2-2 2-3 2-3 3v-1l-1 4v4l5 2h6l8-7 9-3a54 54 0 0 1 13-4l3-1h5l2-1 6 1c2 1 5 1 6 3v-1l1 1 5 5 1 3v6l-1 3-5 7-4 4-7 10-1 1-3 3-3 3c-10 11-19 23-31 32-6 4-11 11-18 15l-7 6-7 8zM9 212c0-1 0-1 0 0zM43 198zM26 213l1-1-1 1z"/><path d="M3 217l1 1v-1H3zM9 220v0z"/></g></g><g fill="#04164d"><path d="M306 1zM329 57l1 1-1-1zM322 65zM337 32zM287 6zM287 6h1-1zM260 29v-1 1zM322 32zM263 24zM330 58zM315 71h-1 1zM274 94v-1 1zM304 78l1-1-1 1zM285 75l1 1-7 6v-1c-1 0 1 3-6 3v1h1l-1 2-1-1-1 2-1-1c0 1 1 2-1 2v2h-1l-2 2h6c-1 1 0 1 1 1h1v-1h1l5-1c2 0 2-1 3-2l2 1v-1h1v1l3-2h2l-1-1c1 0 0 0 0 0 0-1 5-1 4-2l-1-2h1v-1l1 1 3-2-3-2 3-1 1 1c3 0 1-2 2-2h1l-1 1 3-1v-1c1-1 1-2 3-2v-1h2l-4 4 2-2 1 1v-1l5-4 1-1 5-2v-1l1-1v-1l1-1c1-1-1-1 1-1v-2h1c2 0 1-1 2-3l3 1v-2 1c2 0 0-1 1-1l-2-2 1-3 1 1v-1h1v-1l1-2c2-1 2-3 3-5v-1h1c-1-1 0-1 1-1h-1v-1h2v-1h1v-2h1l-1-2v1h-1v-2l1-2h-1 1c-1 0-2-1-1-2v-1l1 1-1-1v-1h1v-4-1l-1-1c1 0-1-2 1-2l-1-2-1-1-1-1-1-2v-3a15 15 0 0 0-3-3l-2-2a27 27 0 0 0-7-4l-2-1h-2l-4-1h-4l-3-1-1 1h1l-2-1h-3l1 1h-1l-3 1h-3l-5 2h-1c-1-1-2 1-2 2h-2c0-2 0 2 0 0l-3 1-4 2-1 1-2 1-3 2c-1 1-1 2-3 2l-1 2-1 1-2 3-1 2-2 1-2 2-1 2h-1l2 6 5 2h5l4-7 3-1 3-1a63 63 0 0 1 12-8l1-1h2l3-1h1l1-1h1l2 1-1-1h2l10 1c3 0 5 2 6 5v3c1 1 2 3 1 5v4l-1 1a45 45 0 0 1-9 16l-3 3a70 70 0 0 1-6 4l-2 3-7 5-5 4-4 4zM272 86zM298 81v1zM286 91v-1 1zM268 90h0zM273 94z"/><g><path d="M348 74zM315 158zM303 167zM336 132zM319 66zM319 65v1h1l-1-1zM272 86zM323 123zM279 81zM315 158v0zM294 176h-1zM238 214zM279 187l1-1v-1l-1 2z"/><path d="M254 189h3c-5 4-8 5-11 10v-1c-1 1 1 3-8 6h-1 2l-2 2c0 1 0 0 0 0l-2 2h-2c0 1 1 2-1 3v1h-1l-3 4 8-1c-2 1 0 0 0 0h2v-1 0l1-1h1l6-3 4-2 2-1c2 0 0 0 0-1h2v1l4-3 3-1h-1-1c1-2 7-3 6-4l-1-2h1v-1h1l4-3-3-1 4-2h1c4-1 1-2 3-3h1l-1 1 4-1h-1 1c-1-1 0-1 1-2l4-3-1-1 2-1 1 1-6 5h1l2-3 2 1v-1l7-6 1-1 7-4-1-1c1 0 3 0 2-1v-1l2-2 2-2v-1h2l3-4c1-1 2 0 2 1l1-2 1 1 1-2-2-3v1c0-2 1-3 2-3l1-1h1l1-1 2-2 4-5h1v-1h1l2-1h-1l1-1c1-1 1 0 2 1v-2l1 1c-1-1 0 0 1-2 0 0 0 1 0 0l1-2-1 1-1-1 2-2v1c0-2 1-1 2-2h-1 1c-1-1 0-2 1-3v0l1 1v-1c0-1 0-2 1-1l3-3c0-1 2-1 1-2 1 0 2-3 3-1l1-2v-2l3-3 5-6a51 51 0 0 0 3-14l1-7-2-6-1-1-2-4-3-4-2-1v1c0-1-2-2-1-3l-1-1-2-1v1l-1-1-9-3c-2-1-5-2-8-1 1-1-2 0-2-1-1-2-3 0-4 1h-2c1-2-2 1-1 0h-5l-5 1-10 3-4 2c-2 0-3 2-3 2-1 2-3 1-2 1-2 1-2 3-4 3l-3 2-2 1-3 3-4 2v7l4 3h6l9-8 9-2 10-4h3l3-1h5l2-2c2 2 4 2 6 2l5 2h1l1 1 4 5 2 2v7l-2 3-4 7-4 4-7 10-2 1-2 3-3 3c-11 11-19 22-31 32-7 3-11 11-18 15l-8 6-7 7zM237 206c-1 0-1 0 0 0zM270 193h1zM254 207c1 0 1 0 0 0zM231 212h0zM236 215c1 0 1 0 0 0z"/></g></g><g fill="#ae956b" stroke="#ae956b"><path d="M124 69zm0 12zm1 8zm0-2zm0 9zm0 6h1zm1 9zm0-8zm0 1zm0 14zm0-38v1-1zm0 26v1-1zm1-35zm0-6h1-1zm0 40h1-1zm1-10zm0 5zm0-22zm0 9zm0 2zm0 10v1-1zm0-13zm1-9zm0 21zm0-3v1-1zm0-10zm0 19zm0-22v-1 1zm0 0zm0-2zm0 9zm0-6v1-1zm0-1h1-1zm0 10h1-1zm0 9h1-1zm0 7h1-1zm1-9zm0-20zm0 4v1-1zm0 23zm0 5zm0-40v1-1zm0 3zm0 25zm0 8zm0 12zm0-37zm0 2zm0 3zm0 2zm0-2v1-1zm0-7h1-1zm0 8h1-1zm0 20h1-1zm1-34zm0 0v1-1zm0 13zm0 1zm0 3v1-1zm0 15zm0 5zm0 2zm0-39v1-1zm0 9zm0 4zm0 4zm0 12zm0-31zm0 10zm0 7zm0 5zm0 2zm0-27zm0 2zm0 4zm0 2v1-1zm0 12v1-1zm0-21zm0 1zm0 1zm0 13zm0 1zm0 2zm0-9zm0 14v-1 1zm0 17zm0-22v1-1zm0-11h1v1h-1v-1zm0 4h1v1h-1v-1zm1 22h-1 1zm-1 4h1-1zm1-37zm0 21zm0 6zm0 7zm0 0v1-1zm0 8zm0-44zm0 7zm0 2zm0 2zm0 2zm0 3zm0 3zm0 5v1-1zm0 2zm0 1zm0 2v1-1zm0 6zm0 5zm0 2zm0-12zm0 7v-1 1zm0-29v1-1zm0 9zm0 1zm0 6zm0 15zm0-36zm0 4zm0 4zm0 15zm0 8zm0-30zm0 3v1-1zm0 6h0zm0 3v1-1zm0 1zm0 3v-1 1zm0 9v1-1zm0 1zm0 10v1-1zm0 7zm0-48h1-1zm0 8v-1 1zm0 0h1-1zm0 1h1v1h-1v-1zm0 15zm0 1h1-1zm0 4h1v1h-1v-1zm0 15zm0-43h1-1zm0 11h1-1zm1 1h-1 1zm-1 4h1v1h-1v-1zm0 2h1v1h-1v-1zm0 2h1-1zm0 17h1-1zm0 2h1-1zm1-26zm0 10zm0 1zm0 17zm0-36zm0 1v1-1zm0 2v1-1zm0 6zm0 1zm0 1zm0 0zm0 2zm0 1v-1 1zm0 1zm0 1zm0 1zm0 1zm0 13zm0-36v1-1zm0 1zm0 3zm0 0v1-1zm0 2zm0 6zm0 6zm0 8zm0 1zm0 2v1-1 1-1zm0 3v-1 1zm0 3zm0 1zm0 1zm0 1zm0 0zm0 1v1-1zm0 1zm0-17zm0 11v-1 1zm0-31zm0 8zm0 2v-1 1zm0 2zm0 5zm0 1v1-1zm0 1zm0 20zm0-18h1-1zm0-28v1-1zm0 2zm0 5zm0 2v1-1zm0 3zm0 2zm0 2zm0 1zm0 3zm0 0v1-1zm0 2zm0 1zm0 1zm0 4v1-1zm0 1zm0 6v-1 1zm0 1v1-1zm0 2zm0 1zm0 2zm0 7v-1 1zm0-58zm0 22v-1 1zm0 4zm0 5zm0 1zm1 3h-1v-1l1 1zm-1 6v1-1zm0 6zm0 5zm0 12v1-1zm30-63v-1h0v-1h1l-1-1v-1h1-1v-1h1-1v-1-2-1-1h1-1v-1h-2v-1 1h-1v-1 1h-1v1-1h1-2v1h-1l-1-1v1h1-1c-1 0-1 0 0 0h-1v0l-1 1h-1v1h-1-1v1h-1v0l-1 1v-1 1h-1v1h-1v0h-1v1h-1 1-1v1-1 1h-1 1-1v1h-1v1h-1v-1 1h-1v2h-1v1h-1v1h1v1h-1v2l-1-1v1h-1l1 1h-1v2h-1 1-1v1l-1 1h0l1 1v0h-1v1c1 0 0 0 0 0v1-1 4h-1 1-1v1h1v2h-1 1-1 1v-1 3h-1v1c1 0 1 0 0 0v1-1 1c1 0 0 0 0 0v1c1 0 0 0 0 0v2l1 1v-1 1l-1 1v-1 1h1v1h-1v-1 2-1 1l1-1v1l-1 1v1-1 1h1v1h-1v1-1h1v1h-1 1v1h-1 1v3l-1-1v3h1v1h-1v3h1c-1 0 0 0 0 0h-1v1-1 1h1-1 1l-1 1v1h1v1h-1v-1 1h1v2h-1l1-1-1 1v-1 2h1v2-1 3-1 2-1l1 1v2h1l-1 1h1-1v1l1 1v1-1h1v1h-1 1l1 1-1 1h1l1 1h-1 1v1h1c-1 0-1 0 0 0l-1 1h1l1 1v1-1 1h1v1h1v2l1-1v1l1 1h1v1-1l1 1v1-1l1 1v-1 1h1l-1 1 1-1v1-1 1l1 1v-1l1 1h1v1h1l1 1h2l1 1h4l1 1v-1-2l1-3-1-1 1-1-1-3 1-3v-1l-1-1-1-1h-2v-1c0 1 0 1 0 0h-1-1v-1l-1-1v0h-1v-1h-1v-2h-1v-1l-1-4-1-4h1l-1-1v-4h1v-1-9-3-16-1l1-3 2-2 3-3 4-2 1-1v-1-1-1-1h-1zm-30 13v1-1zm0 2h1v1h-1v-1zm0 2h1-1zm1 2h-1 1zm-1 8h1-1zm1 6l-1-1h1v1zm-1 9h1-1zm0 1h1-1zm0 6v1-1zm0 1zm0 2h1v1h-1v-1zm0 2h1-1zm0 3v1-1zm1-19v-1 1-1 1h-1 1c-1 0-1 0 0 0zm-1-21h1-1zm1 1l-1 1 1-1v-1 1zm-1 4h1-1zm1 2h-1v-1l1 1v-1 1zm-1 3h1v1h-1v-1zm1 12h-1 1l-1 1 1-1zm-1 2h1-1zm1 1h-1l1-1v1zm0 1l-1 1v-1h1zm-1 5h1-1zm1-17zm0-18zm0 2zm0 7v1-1zm0 8v1-1zm0 8v0zm0 7v1-1zm0 2zm0 6zm0 1zm0-39v-1 1zm0 5zm0-5v1-1zm0 4zm0 12zm0 5zm0 4v1-1zm0 7v-1 1zm0 1zm0 1zm0 2zm0 0zm0 1zm0-34v0zm0-6zm0 13zm0 2zm0 6zm0 1zm0 1zm0 9zm0 4zm0 1v-1 1zm0 7zm0-13v-1 1zm0-30zm0 3zm0 3zm0 2zm0 7zm0 10zm0 9zm0 10zm0-50v1-1zm0 2v1-1zm0 4c1 0 1 0 0 0v-1 1zm0 1zm0 1zm0 5zm0 6v-1 1-1 1zm0 2v0zm0 1zm0 10v-1 1zm0 7v-1 1zm0 1zm0 2zm0 3v1-1zm0 2v-1 1zm0 2v-1 1zm0 9zm0-11v0zm0-49zm0 15zm0 12zm0 0zm0 8v1-1zm0 13h0zm1-29l-1 1v-1h1zm-1-13zm0 1zm0 5zm0 14zm0 0zm0 3v-1 1zm0 2c1 0 0 0 0 0zm0 1zm0 12zm0 1zm0 6zm0-20zm0-26h1v1h-1v-1zm0 2h1-1zm0 2h1-1v0zm0 6h1-1zm0 7zm1 5v1l-1-1h1zm-1 6zm0 9h1-1zm1 4v1h-1v-1h1zm-1 6h1-1zm0-35h0zm0 8l1-1-1 1zm0 5h1-1zm0 1h1-1zm0 5h1-1zm0 1l1 1-1-1zm0 2h1-1zm1 5h-1 1zm0 4h-1 1zm-1 5h1-1zm1-45v-1 1zm0 4zm0 6zm0 3zm0 2zm0 2v1-1zm0 2zm0 3v-1 1zm0 8v1-1zm0 4zm0 1zm0 1zm0 6zm0-47zm0 3zm0 10zm0 1v1-1zm0 3zm0 7v1-1zm0 1zm0 6zm0 3zm0 1zm0 1v1-1zm0 2zm0-36v1-1zm0 2zm0 3zm0 2zm0 2zm0 1zm0 15zm0 1zm0 9zm0 1zm0 5zm0 3zm0 5zm0 0v1-1zm0-53zm0 15zm0 5zm0 2zm0 14zm0 6zm0 1zm0-33zm0 6zm0 2zm0 9v-1 1zm0 7zm0 4zm0 1zm0 2zm0 13v1-1zm0-52zm0 7zm0 24zm0 10zm0 5v-1 1zm0 0zm0 5v1-1zm0-45zm0 2zm0 1zm0 34zm0 2v-1 1zm0 5zm0 2zm0-51h1-1zm0 46h1v1h-1v-1zm0 1h1-1zm1-49zm0 2v-1 1zm0 1v-1 1zm0 3zm0 13zm0 24v1-1zm0 3zm0 18zm0-64zm0 40zm0 8zm0 1zm0 5zm0 1zm0-2zm0-53zm0 3zm0 1zm0 46zm0 0zm0 4zm0 2zm0-58v1-1zm0 3zm0 4zm0 43zm0 10zm0 4zm0-65v1-1zm0 3zm0 3v1-1zm0 1v1-1zm0 47zm0 4zm0-56v1-1zm0 52v1-1zm0 1zm0 2l1-1v1h-1zm0 3zm0-54zm0 51zm0-54h1-1zm0 66h1-1zm1-70zm0 1zm0 4v1-1zm0 52zm0 1zm0-56zm0 55v1-1zm0 1zm0 2zm0-59zm0 2zm0 2zm0 0zm0 52v1-1zm0 4zm0-63zm0 64zm0-61zm0 0v1-1zm0-2zm0 3zm0 1v1-1zm0 56zm0 0zm0 1zm0 2zm1-59h-1 1zm-1 58h0zm0-59h0zm1 57zm0 2zm0 0zm0-58zm0 59v-1 1zm0 0zm0 0zm0-61zm0 1zm0 58zm0-60zm0 64zm1 0v-1 1h-1 1zm0-1zm0-64zm0 65zm0-63v1-1zm0-3zm0 66zm0 3zm0-68zm0 1zm0 1zm0-1zm0-2h1-1zm0 66v1-1zm1 6zm0-70zm0 63zm0 1zm0 1zm0 1zm1-70h-1 1zm-1 69h1-1zm1-68zm0 71zm0-70zm0 68v1-1zm0-70v1-1zm0 1zm0 69zm0 0zm0 0v0zm0-71h1v1h-1v-1zm0 3zm1-1h-1l1-1v1zm0 0zm-1 70h1-1zm1 0zm0 1zm0-71v-1 1zm0 71zm0 2zm0-77zm1 75h-1 1zm-1-1zm0-73h1-1zm1 0zm0 74zm0 1zm0-73zm0-3h1-1zm1 2l-1-1h1v1zm-1 0h1-1zm0 75h1-1zm1-77v1-1zm0 1zm0-2v1-1zm0 2zm0-1v1-1zm0 77zm1-76zm0 76zm0-77zm0-2zm0 80zm1 0zm0 0zm0-79zm0-1zm0 1zm0 79v1-1zm1-79h-1 1zm0 80v1-1zm0-80zm0 80v1-1zm0-82zm1 1h-1 1zm0-1zm0 83zm0-82zm0-1zm0 1zm1 82zm0 1zm0-85h1-1zm1 1zm1 0v-1 1zm1-2zm0 1zm0-1zm1 0zm0 88zm2-89zm0 0zm0-2zm0 1h1v1h-1v-1zm0 1h0zm1-1zm0-1h1-1zm0 0h1v1h-1v-1zm1 2zm1 90zm0-92zm0 1zm0-1zm0 76v-1h1l-1 1zm1-78zm0 95zm1-93zm1 0zm1 0zm1 1zm0 83zm0-83zm0 8h1-1zm0 2h1-1zm1 1h-1 1zm0-8zm0-2zm0 1zm0 4zm0 3zm0 4zm0-8zm0-5zm0 2zm0 6v1-1zm0-4zm0 2zm0-4v1-1zm0-2h1-1zm1 9zm0-5zm0 5zm0 2v1-1zm0-10h1-1zm0 4h1-1zm1-1zm0 6zm0-2zm0 1zm0-9zm0 1zm0 1v-1 1zm0 5v-1 1zm0 81zm5-89v1h-1v-1 1h-1 1-1v-1 0h-1v0h-1v5c-1 0-1 0 0 0v1h-1v1h1v1h-1 0l1 1h-1v1l1-1v1-1 2h-1 1c0 1 0 1 0 0v1h-1l1 1v-1 1s0 1 0 0v3l1 1h1l2 1h1l1 1 1 1h1v2h1l1 1v1h1v1h-1 1v2l1 1-1 1v-1l1 1v1h-1l1 1v27h-1v1h1l-1 1v2l1 2h-1 1v1h-1l1 1v1h-1v2s0 1 0 0l-1 1v1h-1v1l-1 1v1h-1v1h-1-1v1h-1a11796077335209 11796077335209 0 0 0-2 2h-1l-1 1v14l1 1h2v-1h3l1-1h2l4-3 4-2v-1h1l2-3 2-2v-1h1v-1l1-1v-1l1-1v-1l1-2v-2l1-2v-1-1-1-2-5-5-1-1-1-2-1-1-3-3-1-1c1 0 1 0 0 0v-1-1-1-2-2h0v-1-1-1c0-1 0-1 0 0v-1-1-1-2c-1 0 0 0 0 0v-1l-1 1v-1-1-1l-1-2v-1-1h-1v-1l-1-1v-1h-1v-1-1 1-1h-1v-1h-1v-1 1-1-1h-1 1-1c0 1 0 0 0 0v-1l-1 1v-1 1-1h-1v-1 1l-1-1h1-1v-1 0h-1v-1 1h-1v-1h-1c0-1 0-1 0 0v-1h-1v-1 1h-1l-1-1c0 1 0 0 0 0l-1-1v1-1h-2v-1 1l-1-1v0h-1 0v-1 1h-1v-1 1c0-1 0-1 0 0v-1zm-5 4zm0 2zm0 0zm0-5v1-1zm0 7zm0-2v1-1zm0 1zm0 1zm0 1zm0 5zm0 75zm0-89v1-1zm0 4zm0 1zm0 6zm0 3zm0 72zm0 0zm0-87h1v1h-1v-1zm1 4l-1-1h1v1zm0 3h-1 1zm0-5zm0 1zm0 2zm0-1zm0 3zm0 7zm0 79zm0-85zm0 73zm0-80zm0 6zm0 2zm0 6v1-1zm0-10zm0 3zm0 5zm0-4v1-1zm0 1zm1-8h-1v-1l1 1zm-1 1zm1-4v1-1zm0 1zm0 0zm0 1h1-1zm0 93h1-1zm1-93zm0 0zm0 0zm1 0zm0 18zm0-18zm1 0v1-1zm0 1v-1 1zm0-2h1-1zm0 19h1v1h-1v-1zm1-17zm1-2v1-1zm0 1v1-1zm0-1h1-1zm1 1zm1 1zm0 1v-1 1zm0 0zm0-2zm0 2zm1-2zm0 1zm0 0zm0 0zm0 1zm0 22zm0-25h1v1h-1v-1zm0 1h1-1zm0 91h1-1zm1-90v1-1zm0 22v1-1zm0-22zm0 1zm0 1v-1 1zm0-1zm0 24v-1 1zm0-23zm0 25v-1 1h1-1zm0-27h1-1zm0 29h1-1zm1 3zm0-4zm0-28zm0 32zm0 0zm0 9zm0-39zm0 34zm1-34zm1 0zm0 1zm0-1zm0 0zm0 1zm0-1h1v1h-1v-1zm1-1v1-1zm0 3zm0 0zm0 0h1-1zm1 0zm0-1zm0 2zm0-3zm0 2zm0-1zm0 1zm0-1zm1 3v-1 1zm0-1c0-1 0-1 0 0zm0-1v1-1zm0-1zm1-1v1-1zm0 4zm0-2zm1 2zm0 0zm0 1zm0 0zm0 0zm1-1v1-1zm0 0zm1 2zm0 1zm0-1zm0 1zm0 0zm0 0zm1 0zm0 1zm0-1zm0 2v-1 1zm0-1h1-1zm1 1zm0 0zm0 1zm1 0zm0-1zm0 2zm1 2zm0-2v1-1zm0 1v1-1zm0 2h1-1zm1-6zm0 7zm1 1v1-1zm0-6zm0 59zm0-52h1v1h-1v-1zm1 3zm0 1zm0-1zm0 2zm0 18zm0 1zm0-14zm0 6zm0-11zm0 1zm0 2h1-1zm1 5h1v1h-1v-1zM203 131zm1-2v-1 1zm2-74l-2-4v82h2v1l1-1h11l1-1v-5-6-37l-1-2-1-1-1-2-1-3v-1l-2-3-1-4-2-3-1-4-1-2-2-4zm-2 54zm5-68h-2-2v1l1 2v2l1 3 2 3 1 2 1 2 3 7v1l1 1 1 4 2 4 1 1v2l1 1 3 6 2 6v1l1 1 1 2 1 2v2l1 2 1 2 1 2 1 2 1 3v1l1 1 4 10a133 133 0 0 1 5 12l1 1h1l3 1h3v-1 1h6v-1 1h2l1-1-1-3-1-2-1-2v-2l-1-1-1-1v-1l-1-1v-2l-1-1-1-3-1-2v-1l-1-1v-1-1l-1-1-1-1-1-3v-2l-2-3-1-2v-1l-1-1v-1-1l-1-1-2-5-2-5-1-2-1-1v-1-1l-1-1v-1l-1-1v-1-1l-1-1-1-1v-1l-1-1v-2l-1-1v-1h-1v-1-1-1 1l-1-1v-1-1l-1-1v-1l-1-1v-1-1 1l-1-2-1-1c1 0 0 0 0 0v-1l-1-1v-1-1l-1-1v-1l-1-1v-1l-1-1v-1 0h-1v-1l-1 1h-1l-1-1v1h-3-4zm11 36zm1-36zm1 2v1-1zm0 1zm2 5zm2 4zm0 1zm1 1v1zm1 5zm2 3zm0 1h1-1zm1-1zm1 4zm3-24zm1 72v1-1zm3-59zm4 9zm1 2zm0 2zm0-2zm0 9zm0-30zm0 4zm0 9zm0 4zm0 1zm0 2zm0 2zm0 3zm0 1v1-1zm0-20zm0 1zm0 0v1-1zm0 5zm0 5zm0 4zm13-27v-1l-1 1v-1 1-1h-1l1 1h-1v-1h-1v1h-1-1v-1 1h-1v-1 1h-1v-1 1l-1-1v1-1 1h-1v-1 1h-2v-1 1l-1 1v-1 4-1 1h-1 1l-1 1 1 1v2-1 2l-1 1 1 1h-1l1 1h-1v1h1l-1 1v1-1 1l1 1h-1v2-1 1c1 0 0 0 0 0v2-1 2l1 2h-1 1l-1 1v1l1-1v1h-1v2l1 1h-1l1 1v3h-1 1v2h-1l1 1v1 11l1 1v2h1c-1 0 0 0 0 0v2-1l1 2v1l1 1v1l1 1v2h1v1l1 1v1l1 1v2l1 1 1 2 1 3 1 2v2l1 2 1 3h1v2h1v-2-3-2-1-2-1-2-1-1-1-1-2-1-1-1-1-1-1-1-1-1-1h1-1v-1-1-1-1-2 0-1-1-1 1-1-1-1-2-1 1-1h1-1v-1-1-2-1-1-1l1 1-1-1h1l-1-1v-1h1-1v-1h1-1v-1-1-1h1-1 1v-1h-1 1-1v-1-1l1-1v-1-1h-1v1-1-1h1v-1h-1 1l-1-1h1-1v-1h1-1v-1h1c-1 0 0 0 0 0h-1v-1h1c-1 0-1 0 0 0v-1l-1-1h1l-1-1h0v-1-1l1 1-1-1v-3 0h1l-1-1h1-1 1v-1h-1v-1-1 1-2-1h-1v-1 1h-1v-1 1l-1-1h1v1h-1v-1 0h-1v1h-1 1zm-13 7h1-1zm0 28h1-1zm0 8h1-1zm0-23h1v1h-1v-1zm0 9h1-1zm0 0h1-1zm0 8h1-1zm1-33zm0 2zm0 6zm0 12zm0 6v1-1zm0 16zm0-41zm0 1v1-1zm0 4zm0 11v1-1zm0 12zm0 1zm0 2zm0-34zm0 18zm0 8zm0-20v-1 1zm0 2zm0 5zm0 29v1-1zm0 1zm0-44zm0 38zm0-35v1-1zm0 44h1-1zm1 1zm0-49zm0 0zm1 0zm0-1zm0 1h1-1zm0-1h1-1 1zm2 0zm0 57zm0 12zm0-68h1l-1-1 1 1zm1 0v-1zm0 58zm0-59zm1 1zm0-2v1-1zm0 0v1-1zm1 1zm0-7zm0 3zm0 4v1-1zm0-1v1-1zm1 1zm0 1zm0 0zm0-1zm0 1v-1 1zm1 0zm0 78zm0-79zm1 0zm1 1zm0-1zm0-1h1v1-1zm1 2zm0-1zm0-4h1l-1 1v-1zm0 3h1v1-1zm1 1zm0 0zm0 0zm1 52zm0-51zm1-1zm0-1v1-1zm0 1v0zm0 1zm0 0h1v-1l-1 1zm0 0zm1 68zm0 3zm0-17zm0 1zm0 10v-1 1zm0 6zm0 2zm0 7zm0-80v1-1zm0 2v1-1zm0 45zm0 7v-1 1zm0 8zm0 13zm0-70zm0 41zm0 4zm0 5zm0 6zm0 5zm0 5zm0 3zm0 1zm0 1zm0-70zm0 5v1-1zm0 27zm0 5zm0 10zm0 8zm0 3zm0-65zm0 17zm0 2zm0 4v-1l1 1h-1zm0 7zm0 12zm0 4zm0 2c0 1 0 1 0 0zm0 1h1-1zm0 8v1-1zm0-43zm0 1h1-1zm0 14zm0 16zm0 1h1-1zm0 4h0zm0 9v1-1zm0 3h1-1zm0-60h1-1zm0 3h0zm1 0h-1 1zm0 5h-1 1zm-1 6h1-1zm0 11h1-1zm0 1h1-1zm0 8h1-1zm0 2h1-1zm0 1h1-1zm0 2h1-1zm1 6l-1-1 1 1zm-1 10h1-1zm1-49zm0 8zm0 1zm0 3zm0 6zm0 1zm0 1zm0 4zm0 1v-1 1zm0 1v0zm0 5zm0 0v1-1zm0 2zm0 1v1-1zm0 1zm0 9zm0 4zm0 1zm0 5v1-1zm0-49zm0 12v0zm0-22zm0 9zm0 6zm0 16zm0 1zm0 6v1-1zm0 3v-1zm0-33zm0 1v1-1zm0 1zm0 2v1-1zm0 4zm0 4zm0 1zm0 8zm0 4zm0 1zm0 7zm0 2v1-1zm0 3v1-1zm0-24v-1 1zm0-18zm0 1v1-1zm0 11zm0 1zm0 9zm0 4zm0 5v1-1zm0 10zm0-45zm0 2v1-1zm0 1zm0 3zm0 12v1-1zm0 3v1-1zm0 6v1-1zm0 2v-1 1zm0 3zm0 9zm0 0zm0-38zm0 5zm0 12zm0 4zm0 7zm0-32h1-1zm0 13h1-1zm0 25h1-1zm0-37h1-1zm0 19h1-1zm0 5h1-1zm0 4h1-1zm1-20zm0 7zm0 3zm0 24v1-1zm0-36zm0 10v1-1zm0 9z"/></g></g></svg>